<svg width="21" height="21" viewBox="0 0 21 21" fill="none" xmlns="http://www.w3.org/2000/svg">
<path fill-rule="evenodd" clip-rule="evenodd" d="M12.6721 4.44353V2.33826H8.67212V4.44353H12.6721ZM2.67212 6.54879V18.1277H18.6721V6.54879H2.67212ZM18.6721 4.44353C19.7821 4.44353 20.6721 5.38037 20.6721 6.54879V18.1277C20.6721 19.2962 19.7821 20.233 18.6721 20.233H2.67212C1.56212 20.233 0.672119 19.2962 0.672119 18.1277L0.682119 6.54879C0.682119 5.38037 1.56212 4.44353 2.67212 4.44353H6.67212V2.33826C6.67212 1.16984 7.56212 0.233002 8.67212 0.233002H12.6721C13.7821 0.233002 14.6721 1.16984 14.6721 2.33826V4.44353H18.6721Z" fill="white"/>
</svg>
