<svg width="20" height="21" viewBox="0 0 20 21" fill="none" xmlns="http://www.w3.org/2000/svg">
<path d="M9.99 0.0679626C4.47 0.0679626 0 4.54796 0 10.068C0 15.588 4.47 20.068 9.99 20.068C15.52 20.068 20 15.588 20 10.068C20 4.54796 15.52 0.0679626 9.99 0.0679626ZM16.92 6.06796H13.97C13.65 4.81796 13.19 3.61796 12.59 2.50796C14.43 3.13796 15.96 4.41796 16.92 6.06796ZM10 2.10796C10.83 3.30796 11.48 4.63796 11.91 6.06796H8.09C8.52 4.63796 9.17 3.30796 10 2.10796ZM2.26 12.068C2.1 11.428 2 10.758 2 10.068C2 9.37796 2.1 8.70796 2.26 8.06796H5.64C5.56 8.72796 5.5 9.38796 5.5 10.068C5.5 10.748 5.56 11.408 5.64 12.068H2.26ZM3.08 14.068H6.03C6.35 15.318 6.81 16.518 7.41 17.628C5.57 16.998 4.04 15.728 3.08 14.068ZM6.03 6.06796H3.08C4.04 4.40796 5.57 3.13796 7.41 2.50796C6.81 3.61796 6.35 4.81796 6.03 6.06796ZM10 18.028C9.17 16.828 8.52 15.498 8.09 14.068H11.91C11.48 15.498 10.83 16.828 10 18.028ZM12.34 12.068H7.66C7.57 11.408 7.5 10.748 7.5 10.068C7.5 9.38796 7.57 8.71796 7.66 8.06796H12.34C12.43 8.71796 12.5 9.38796 12.5 10.068C12.5 10.748 12.43 11.408 12.34 12.068ZM12.59 17.628C13.19 16.518 13.65 15.318 13.97 14.068H16.92C15.96 15.718 14.43 16.998 12.59 17.628ZM14.36 12.068C14.44 11.408 14.5 10.748 14.5 10.068C14.5 9.38796 14.44 8.72796 14.36 8.06796H17.74C17.9 8.70796 18 9.37796 18 10.068C18 10.758 17.9 11.428 17.74 12.068H14.36Z" fill="white"/>
</svg>
