<svg width="20" height="21" viewBox="0 0 20 21" fill="none" xmlns="http://www.w3.org/2000/svg">
<path d="M10 2.608C11.45 2.608 12.625 3.783 12.625 5.233C12.625 6.683 11.45 7.858 10 7.858C8.55 7.858 7.375 6.683 7.375 5.233C7.375 3.783 8.55 2.608 10 2.608ZM10 13.858C13.7125 13.858 17.625 15.683 17.625 16.483V17.858H2.375V16.483C2.375 15.683 6.2875 13.858 10 13.858ZM10 0.233002C7.2375 0.233002 5 2.4705 5 5.233C5 7.9955 7.2375 10.233 10 10.233C12.7625 10.233 15 7.9955 15 5.233C15 2.4705 12.7625 0.233002 10 0.233002ZM10 11.483C6.6625 11.483 0 13.158 0 16.483V20.233H20V16.483C20 13.158 13.3375 11.483 10 11.483Z" fill="white"/>
</svg>
