<svg width="20" height="21" viewBox="0 0 20 21" fill="none" xmlns="http://www.w3.org/2000/svg">
<path d="M14.2939 12.6466H13.3905L13.0703 12.3378C14.191 11.0342 14.8656 9.34183 14.8656 7.50078C14.8656 3.39558 11.538 0.0679626 7.43282 0.0679626C3.32762 0.0679626 0 3.39558 0 7.50078C0 11.606 3.32762 14.9336 7.43282 14.9336C9.27387 14.9336 10.9663 14.2589 12.2699 13.1383L12.5786 13.4585V14.3618L18.2962 20.068L20 18.3641L14.2939 12.6466ZM7.43282 12.6466C4.58548 12.6466 2.28702 10.3481 2.28702 7.50078C2.28702 4.65344 4.58548 2.35498 7.43282 2.35498C10.2802 2.35498 12.5786 4.65344 12.5786 7.50078C12.5786 10.3481 10.2802 12.6466 7.43282 12.6466Z" fill="white"/>
</svg>
