<svg width="21" height="20" viewBox="0 0 21 20" fill="none" xmlns="http://www.w3.org/2000/svg">
<path d="M14.5116 12.5786H13.5944L13.2694 12.2699C14.4071 10.9663 15.092 9.27387 15.092 7.43282C15.092 3.32762 11.7137 0 7.54601 0C3.37829 0 0 3.32762 0 7.43282C0 11.538 3.37829 14.8656 7.54601 14.8656C9.4151 14.8656 11.1333 14.191 12.4567 13.0703L12.7702 13.3905V14.2939L18.5748 20L20.3046 18.2962L14.5116 12.5786V12.5786ZM7.54601 12.5786C4.65531 12.5786 2.32185 10.2802 2.32185 7.43282C2.32185 4.58548 4.65531 2.28702 7.54601 2.28702C10.4367 2.28702 12.7702 4.58548 12.7702 7.43282C12.7702 10.2802 10.4367 12.5786 7.54601 12.5786Z" fill="black"/>
</svg>
